<svg xmlns="http://www.w3.org/2000/svg" viewBox="0 0 24 24" class="design-iconfont">
  <path d="M20.3245773,13.1539503 C20.3293347,12.9625158 20.3297063,12.7708825 20.3259401,12.5793485 C20.3773292,9.96922335 19.6028257,7.76905585 18.0859802,6.21600813 C17.3624693,5.47549474 16.482586,4.90710592 15.4742299,4.51986292 C15.3177335,3.11008666 13.7911999,2 11.9368316,2 C10.0825625,2 8.55610321,3.11008666 8.3995077,4.51986292 C7.39127549,4.90710592 6.51146645,5.47549474 5.78798036,6.21608269 C4.27081276,7.76915526 3.49603669,9.96494882 3.54762401,12.5672208 C3.5430649,12.8130314 3.54460112,13.0438811 3.55225745,13.2695864 C3.15910858,13.6665217 2.85112091,14.2659009 3.07615261,15.1071641 C3.24340255,15.732265 3.70451684,16.2006496 4.27024287,16.4055788 C4.55768978,16.5833447 4.895386,16.6869276 5.25669543,16.6893383 C5.97805063,19.8525186 8.5965653,22 12.0159966,22 C15.4290352,22 18.0481198,19.8472003 18.7654114,16.6821561 C18.7874884,16.6869276 18.8103335,16.6895371 18.8338476,16.6895371 C19.2844066,16.6895371 19.6987404,16.5317769 20.0255097,16.2690919 C20.4528271,16.0259156 20.7868314,15.6191638 20.9238029,15.1071641 C21.1719523,14.1798883 20.7723364,13.5462631 20.3245773,13.1539503 Z M8.61579218,9 C8.67596223,9.09893993 10.1202081,11.4380546 12.841564,12.4520001 C13.5922753,12.7316376 14.3614138,12.8918081 15.1052595,13.0464759 C16.5975646,13.3569984 18.0070432,13.6502306 18.9673747,14.8745988 C18.9773435,14.8874383 18.9885207,14.8991449 19,14.91042 L18.9984896,14.972163 C18.9984896,15.4285059 19.0350694,15.4814599 18.9673747,15.9054612 C17.732749,17.8430438 15.6127916,19.5009036 13.075104,19.7743371 C12.8860805,19.5292531 12.5007286,19.3601543 12.0532018,19.3601543 C11.4185465,19.3601543 10.9036271,19.6976236 10.9036271,20.1128854 C10.9036271,20.5290913 11.4185465,20.8657244 12.0533117,20.8657244 C12.6220573,20.8657244 13.0906477,20.5937744 13.1818228,20.2381518 C14.0003386,20.1457665 14.842092,19.8547209 15.5481188,19.516312 C16.568095,19.0274227 16.9866698,18.6331796 17.7576483,17.8567385 C17.8811191,17.7324971 18.0195383,17.8305429 18.1342211,17.6985331 C17.6278851,19.5380531 15.3111412,21.7081243 12.0272427,21.708448 C12.0214481,21.7081243 12.0057946,21.7081243 12,21.7081243 C7.88547821,21.7081243 5.8405245,18.8994354 5.161697,14.972163 L5.15398007,14.5778869 C5.148927,14.408869 5.148927,14.0481853 5.05092968,13.4723653 C7.29394603,12.6928762 8.22530477,10.4536185 8.26605892,10.3528983 L8.61579218,9 Z M11,15.5000464 C11,16.3281516 10.3284955,17 9.49998452,17 C8.67159742,17 8,16.3281516 8,15.5000464 C8,14.6715697 8.67159742,14 9.49998452,14 C10.3283716,14 11,14.6715697 11,15.5000464 Z M16,15.5001888 C16,16.3285217 15.328424,17 14.5,17 C13.671576,17 13,16.3285217 13,15.5001888 C13,14.6716042 13.671576,14 14.5,14 C15.328424,14 16,14.6716042 16,15.5001888 Z" fill="currentColor" fill-opacity=".8" fill-rule="evenodd"/>
</svg>
