<svg xmlns="http://www.w3.org/2000/svg" viewBox="0 0 24 24" class="design-iconfont">
  <path d="M20,4 C21.1045695,4 22,4.8954305 22,6 L22,17 C22,18.1045695 21.1045695,19 20,19 L4,19 C2.8954305,19 2,18.1045695 2,17 L2,6 C2,4.8954305 2.8954305,4 4,4 L20,4 Z M19.69341,8.197889 C19.295465,7.81492922 18.6624165,7.82707717 18.2794568,8.22502221 L13.935,12.7384322 L9.44282371,10.1015764 C9.05015933,9.87113094 8.55139886,9.93501647 8.22949308,10.2569902 L4.29281856,14.1944961 C3.90233551,14.5850616 3.90240236,15.2182266 4.29296788,15.6087097 L4.387184,15.6918883 C4.77950741,15.9968718 5.34673554,15.9690824 5.70718144,15.6085604 L9.096,12.2174322 L13.6036376,14.8624459 C14.0024373,15.0964921 14.5096935,15.0265931 14.83033,14.69341 L19.7205432,9.61184225 C20.103503,9.21389721 20.0913551,8.58084878 19.69341,8.197889 Z M5.5,20 L18.5,20 C18.7761424,20 19,20.2238576 19,20.5 C19,20.7761424 18.7761424,21 18.5,21 L5.5,21 C5.22385763,21 5,20.7761424 5,20.5 C5,20.2238576 5.22385763,20 5.5,20 Z" fill="currentColor" fill-opacity=".8" fill-rule="evenodd"/>
</svg>
