<?xml version="1.0" encoding="UTF-8"?>
<svg width="24px" height="24px" viewBox="0 0 24 24" version="1.1" xmlns="http://www.w3.org/2000/svg" xmlns:xlink="http://www.w3.org/1999/xlink">
    <g id="页面-1" stroke="none" stroke-width="1" fill="none" fill-rule="evenodd" fill-opacity="0.8">
        <g id="智慧养老_服务中心_社区服务" transform="translate(-22.000000, -82.000000)" fill="currentColor">
            <g id="编组-2备份-4" transform="translate(18.000000, 78.000000)">
                <g id="编组" transform="translate(4.000000, 4.000000)">
                    <path d="M12.3166189,2.25905182 L21.915915,10.1130214 C22.1296374,10.2878851 22.1611385,10.6028965 21.9862747,10.8166189 C21.8913102,10.9326866 21.7492627,11 21.5992961,11 L19.9997039,10.9990305 L20,20 C20,21.1045695 19.1045695,22 18,22 L14,22 L14,14 L10,14 L10,22 L6,22 C4.8954305,22 4,21.1045695 4,20 L3.99970391,10.9990305 L2.40070391,11 C2.12456154,11 1.90070391,10.7761424 1.90070391,10.5 C1.90070391,10.3500334 1.9680173,10.2079858 2.08408502,10.1130214 L11.6833811,2.25905182 C11.867564,2.10835669 12.132436,2.10835669 12.3166189,2.25905182 Z" id="形状结合"></path>
                </g>
            </g>
        </g>
    </g>
</svg>
