<svg xmlns="http://www.w3.org/2000/svg" viewBox="0 0 24 24" class="design-iconfont">
  <path d="M12.1044448,2 L17,6 L17,22 L14,22 L14,16 C14,15.4477153 13.5522847,15 13,15 L11,15 C10.4477153,15 10,15.4477153 10,16 L10,22 L7,22 L7,6 L12.1044448,2 Z M13.5,10 L10.5,10 C10.2238576,10 10,10.2238576 10,10.5 C10,10.7761424 10.2238576,11 10.5,11 L13.5,11 C13.7761424,11 14,10.7761424 14,10.5 C14,10.2238576 13.7761424,10 13.5,10 Z M13.5,8 L10.5,8 C10.2238576,8 10,8.22385763 10,8.5 C10,8.77614237 10.2238576,9 10.5,9 L13.5,9 C13.7761424,9 14,8.77614237 14,8.5 C14,8.22385763 13.7761424,8 13.5,8 Z M18,10 L20,10 C20.5522847,10 21,10.4477153 21,11 L21,22 L21,22 L18,22 L18,10 Z M4,10 L6,10 L6,10 L6,22 L3,22 L3,11 C3,10.4477153 3.44771525,10 4,10 Z" fill="currentColor" fill-opacity=".8" fill-rule="evenodd"/>
</svg>
