<svg xmlns="http://www.w3.org/2000/svg" viewBox="0 0 24 24" class="design-iconfont">
  <path d="M20,4 C21.1045695,4 22,4.8954305 22,6 L22,17 C22,18.1045695 21.1045695,19 20,19 L14.0505933,19 L11.9946263,21 L9.97916919,19 L4,19 C2.8954305,19 2,18.1045695 2,17 L2,6 C2,4.8954305 2.8954305,4 4,4 L20,4 Z M12.0076664,10.0593807 C11.1792393,10.0593807 10.5076664,10.7309536 10.5076664,11.5593807 C10.5076664,12.3878078 11.1792393,13.0593807 12.0076664,13.0593807 C12.8360935,13.0593807 13.5076664,12.3878078 13.5076664,11.5593807 C13.5076664,10.7309536 12.8360935,10.0593807 12.0076664,10.0593807 Z M6.5,10 C5.67157288,10 5,10.6715729 5,11.5 C5,12.3284271 5.67157288,13 6.5,13 C7.32842712,13 8,12.3284271 8,11.5 C8,10.6715729 7.32842712,10 6.5,10 Z M17.5,10 C16.6715729,10 16,10.6715729 16,11.5 C16,12.3284271 16.6715729,13 17.5,13 C18.3284271,13 19,12.3284271 19,11.5 C19,10.6715729 18.3284271,10 17.5,10 Z" fill="currentColor" fill-opacity=".8" fill-rule="evenodd"/>
</svg>
