<svg xmlns="http://www.w3.org/2000/svg" viewBox="0 0 24 24" class="design-iconfont">
  <path d="M17.9500875,3.99952419 L18,4 C19.1045695,4 20,4.8954305 20,6 L20,20 C20,21.1045695 19.1045695,22 18,22 L6,22 C4.8954305,22 4,21.1045695 4,20 L4,6 C4,4.8954305 4.8954305,4 6,4 L6.04991252,3.99952419 C6.28136379,5.1408814 7.29035295,6 8.5,6 L15.5,6 C16.7096471,6 17.7186362,5.1408814 17.9500875,3.99952419 Z M15.5,16 L8.5,16 C8.22385763,16 8,16.2238576 8,16.5 C8,16.7761424 8.22385763,17 8.5,17 L15.5,17 C15.7761424,17 16,16.7761424 16,16.5 C16,16.2238576 15.7761424,16 15.5,16 Z M15.5,10 L8.5,10 C8.22385763,10 8,10.2238576 8,10.5 C8,10.7761424 8.22385763,11 8.5,11 L15.5,11 C15.7761424,11 16,10.7761424 16,10.5 C16,10.2238576 15.7761424,10 15.5,10 Z M15.5,2 C16.3284271,2 17,2.67157288 17,3.5 C17,4.32842712 16.3284271,5 15.5,5 L8.5,5 C7.67157288,5 7,4.32842712 7,3.5 C7,2.67157288 7.67157288,2 8.5,2 L15.5,2 Z" fill="currentColor" fill-opacity=".8" fill-rule="evenodd"/>
</svg>
