<svg xmlns="http://www.w3.org/2000/svg" viewBox="0 0 24 24" class="design-iconfont">
  <path d="M13,3 C17.9705627,3 22,7.02943725 22,12 C22,16.9705627 17.9705627,21 13,21 C10.9283222,21 9.02013042,20.3000328 7.49902444,19.1236979 C8.02360535,18.7031323 8.43982666,18.1537659 8.69965901,17.5234574 C9.88592473,18.4487271 11.378584,19 13,19 C16.8659932,19 20,15.8659932 20,12 C20,8.13400675 16.8659932,5 13,5 C11.378584,5 9.88592473,5.5512729 8.69922743,6.47661338 C8.43982666,5.84623413 8.02360535,5.29686766 7.49932721,4.87677531 C9.02013042,3.69996725 10.9283222,3 13,3 Z M5,5 C6.65685425,5 8,6.34314575 8,8 L8,16 C8,17.6568542 6.65685425,19 5,19 C3.34314575,19 2,17.6568542 2,16 L2,8 C2,6.34314575 3.34314575,5 5,5 Z M5,6 C3.8954305,6 3,6.8954305 3,8 C3,9.1045695 3.8954305,10 5,10 C6.1045695,10 7,9.1045695 7,8 C7,6.8954305 6.1045695,6 5,6 Z" fill="currentColor" fill-opacity=".8" fill-rule="nonzero"/>
</svg>
